# AST/ASF file generated using VICON BodyLanguage
# -----------------------------------------------
:version 1.10
:name VICON
:units
  mass 1.0
  length 0.45
  angle deg
:documentation
   .ast/.asf automatically generated from VICON data using
   VICON BodyBuilder and BodyLanguage model FoxedUp or BRILLIANT.MOD
:root
   order TX TY TZ RX RY RZ
   axis XYZ
   position 0 0 0  
   orientation 0 0 0 
:bonedata
  begin
     id 1 
     name lhipjoint
     direction 0.578396 -0.714046 0.394458 
     length 2.21935 
     axis 0 0 0  XYZ
  end
  begin
     id 2 
     name lfemur
     direction 0.34202 -0.939693 0  
     length 6.39105  
     axis 0 0 20  XYZ
    dof rx ry rz
    limits (-160.0 20.0)
           (-70.0 70.0)
           (-60.0 70.0)
  end
  begin
     id 3 
     name ltibia
     direction 0.34202 -0.939693 0   
     length 6.99037   
     axis 0 0 20   XYZ
    dof rx
    limits (-10.0 170.0)
  end
  begin
     id 4 
     name lfoot
     direction 0.0582372 -0.160005 0.985397   
     length 2.06111   
     axis -90 7.62852e-016 20   XYZ
    dof rx rz
    limits (-45.0 90.0)
           (-70.0 20.0)
  end
  begin
     id 5 
     name ltoes
     direction 1.53556e-011 -4.21875e-011 1   
     length 1.04074   
     axis -90 7.62852e-016 20   XYZ
    dof rx
    limits (-90.0 20.0)
  end
  begin
     id 6 
     name rhipjoint
     direction -0.558179 -0.726269 0.40121   
     length 2.182  
     axis 0 0 0  XYZ 
  end
  begin
     id 7 
     name rfemur
     direction -0.34202 -0.939693 0   
     length 6.51172   
     axis 0 0 -20   XYZ
    dof rx ry rz
    limits (-160.0 20.0)
           (-70.0 70.0)
           (-70.0 60.0)
  end
  begin
     id 8 
     name rtibia
     direction -0.34202 -0.939693 0   
     length 7.02607   
     axis 0 0 -20   XYZ
    dof rx
    limits (-10.0 170.0)
 end
 begin
     id 9 
     name rfoot
     direction -0.0788856 -0.216737 0.973038   
     length 1.96734  
     axis -90 -7.62852e-016 -20   XYZ
    dof rx rz
    limits (-45.0 90.0)
           (-20.0 70.0)
  end
  begin
     id 10 
     name rtoes
     direction -1.53567e-011 -4.21783e-011 1   
     length 0.990825   
     axis -90 -7.62852e-016 -20   XYZ
    dof rx
    limits (-90.0 20.0)
  end
  begin
     id 11 
     name lowerback
     direction 0.00668177 0.999323 -0.0361741   
     length 1.7655   
     axis 0 0 0   XYZ
    dof rx ry rz
    limits (-20.0 45.0)
           (-30.0 30.0)
           (-30.0 30.0)
  end
  begin
     id 12 
     name upperback
     direction -0.00222086 0.99851 0.0545167   
     length 1.74912   
     axis 0 0 0   XYZ
    dof rx ry rz
    limits (-20.0 45.0)
           (-30.0 30.0)
           (-30.0 30.0)
  end
  begin
     id 13 
     name thorax
     direction -0.00733971 0.997496 0.0703443   
     length 1.75715   
     axis 0 0 0   XYZ
    dof rx ry rz
    limits (-20.0 45.0)
           (-30.0 30.0)
           (-30.0 30.0)
  end
  begin
     id 14 
     name lowerneck
     direction 0.0279797 0.994795 0.0979765   
     length 1.46939   
     axis 0 0 0   XYZ
    dof rx ry rz
    limits (-20.0 45.0)
           (-30.0 30.0)
           (-30.0 30.0)
  end
  begin
     id 15 
     name upperneck
     direction 0.00339187 0.976776 -0.214238   
     length 1.48018   
     axis 0 0 0   XYZ
    dof rx ry rz
    limits (-20.0 45.0)
           (-30.0 30.0)
           (-30.0 30.0)
  end
  begin
     id 16
     name head
     direction -0.00263506 0.996603 -0.0823096  
     length 1.4976  
     axis 0 0 0   XYZ
    dof rx ry rz
    limits (-20.0 45.0)
           (-30.0 30.0)
           (-30.0 30.0)
  end
  begin
     id 17 
     name lclavicle
     direction 0.894044 0.44508 -0.0508781  
     length 3.03024  
     axis 0 0 0   XYZ
    dof ry rz
    limits (-20.0 10.0)
           (0.0 20.0)
  end
  begin
     id 18 
     name lhumerus
     direction 1 -4.48961e-011 -2.39475e-018   
     length 4.4661   
     axis 180 -30 -90   XYZ
    dof rx ry rz
    limits (-60.0 90.0)
           (-90.0 90.0)
           (-90.0 90.0)
  end
  begin
     id 19
     name lradius
     direction 1 -4.48961e-011 9.29328e-028   
     length 3.41414   
     axis 180 -30 -90   XYZ
    dof rx
    limits (-10.0 170.0)
  end
  begin
     id 20
     name lwrist
     direction 1 -4.48985e-011 1.53461e-026   
     length 1.70707   
     axis -1.09697e-014 90 90   XYZ
    dof ry
    limits (-180.0 0.0)
 end
  begin
     id 21 
     name lhand
     direction 1 -4.48966e-011 3.06923e-026   
     length 0.328298   
     axis -1.95843e-014 90 90   XYZ
    dof rx rz
    limits (-90.0 90.0)
           (-45.0 45.0)
  end
  begin
     id 22 
     name lfingers
     direction 1 -4.48893e-011 6.13845e-026   
     length 0.264682   
     axis -3.91686e-014 90 90   XYZ
    dof rx
    limits (0.0 90.0)
  end
  begin
     id 23
     name lthumb
     direction 0.707107 -6.34876e-011 0.707107   
     length 0.380032   
     axis -90 45 2.85299e-015   XYZ
    dof rx rz
    limits (-45.0 45.0)
           (-45.0 45.0)
  end
  begin
     id 24 
     name rclavicle
     direction -0.936955 0.347862 -0.0332887   
     length 3.26927  
     axis 0 0 0   XYZ 
    dof ry rz
    limits (-10.0 20.0)
           (-20.0 0.0)
  end
  begin
     id 25 
     name rhumerus
     direction -1 -4.4896e-011 1.78637e-018  
     length 4.40431   
     axis 180 30 90   XYZ
    dof rx ry rz
    limits (-90.0 60.0)
           (-90.0 90.0)
           (-90.0 90.0)
  end
  begin
     id 26 
     name rradius
     direction -1 -4.48955e-011 9.34036e-027   
     length 3.04688   
     axis 180 30 90   XYZ
    dof rx
    limits (-10.0 170.0)
  end
  begin
     id 27 
     name rwrist
     direction -1 -4.49011e-011 1.53461e-026   
     length 1.52344   
     axis -1.09697e-014 -90 -90   XYZ
    dof ry
    limits (-180.0 0.0)
  end
  begin
     id 28
     name rhand
     direction -1 -4.48834e-011 3.06923e-026   
     length 0.500489   
     axis -1.95843e-014 -90 -90   XYZ
    dof rx rz
    limits (-90.0 90.0)
           (-45.0 45.0)
  end
  begin
     id 29
     name rfingers
     direction -1 -4.48967e-011 6.13845e-026   
     length 0.403507   
     axis -3.91686e-014 -90 -90   XYZ
    dof rx
    limits (0.0 90.0)
  end
  begin
     id 30
     name rthumb
     direction -0.707107 -6.34826e-011 0.707107   
     length 0.579358   
     axis -90 -45 -2.85299e-015   XYZ
    dof rx rz
    limits (-45.0 45.0)
           (-45.0 45.0)
  end
:hierarchy
  begin
    root lhipjoint rhipjoint lowerback
    lhipjoint lfemur
    lfemur ltibia
    ltibia lfoot
    lfoot ltoes
    rhipjoint rfemur
    rfemur rtibia
    rtibia rfoot
    rfoot rtoes
    lowerback upperback
    upperback thorax
    thorax lowerneck lclavicle rclavicle
    lowerneck upperneck
    upperneck head
    lclavicle lhumerus
    lhumerus lradius
    lradius lwrist
    lwrist lhand lthumb
    lhand lfingers
    rclavicle rhumerus
    rhumerus rradius
    rradius rwrist
    rwrist rhand rthumb
    rhand rfingers
  end

#!OML:ASF H:\IndianDance\Patient Classification 1\Patient 1\Session 1\dancer.ASF
:FULLY-SPECIFIED
:DEGREES
1983
root 7.80242 14.1837 -3.97446 -171.357 -9.12984 -176.004
lowerback 9.81302 0.962096 -0.352674
upperback -5.16561 1.24914 0.963857
thorax -11.1287 0.627924 1.00728
lowerneck -18.6265 2.4632 2.87055
upperneck 21.3179 1.5003 2.71844
head 9.86675 1.09938 0.657582
rclavicle 4.94228e-014 2.18663e-014
rhumerus 12.8688 62.7349 -19.8828
rradius 104.231
rwrist 12.2674
rhand -51.3988 55.2564
rfingers 7.12502
rthumb -23.9311 26.7277
lclavicle 4.94228e-014 2.18663e-014
lhumerus 34.4558 -58.8545 -13.2801
lradius 111.691
lwrist 13.0265
lhand -49.8296 -26.0815
lfingers 7.12502
lthumb -22.4255 2.6367
rfemur -38.5851 -18.898 37.0973
rtibia 62.1994
rfoot -31.3285 -17.8247
rtoes 13.713
lfemur -48.824 35.9131 -13.9892
ltibia 68.0493
lfoot -15.9712 1.40609
ltoes -13.0055
1984
root 7.81561 14.1741 -3.98027 -171.527 -9.0219 -176.019
lowerback 9.58203 0.999834 -0.446008
upperback -5.24704 1.27518 0.908412
thorax -11.0825 0.642672 0.997991
lowerneck -18.4798 2.7702 3.14018
upperneck 21.2457 1.91482 2.5081
head 9.81938 1.28906 0.594495
rclavicle 1.72818e-014 5.56597e-015
rhumerus 12.7764 62.6704 -19.8178
rradius 104.254
rwrist 12.3558
rhand -51.3294 55.2673
rfingers 7.12502
rthumb -23.8646 26.7298
lclavicle 1.72818e-014 5.56597e-015
lhumerus 34.7497 -58.5344 -13.6352
lradius 111.694
lwrist 13.1562
lhand -49.8171 -26.0314
lfingers 7.12502
lthumb -22.4135 2.68815
rfemur -38.4184 -18.8529 37.0787
rtibia 62.3147
rfoot -31.3603 -17.8792
rtoes 13.8348
lfemur -48.882 36.2231 -13.7458
ltibia 68.7318
lfoot -15.7441 1.14031
ltoes -13.8336
1985
root 7.82857 14.1626 -3.98615 -171.703 -8.92054 -176.066
lowerback 9.35748 1.03184 -0.577767
upperback -5.32736 1.28833 0.852364
thorax -11.0397 0.654051 1.01223
lowerneck -18.3249 3.07741 3.41381
upperneck 21.1852 2.32707 2.29953
head 9.77706 1.47808 0.530785
rclavicle -3.02277e-014 -3.97569e-016
rhumerus 12.7364 62.6117 -19.7238
rradius 104.269
rwrist 12.4465
rhand -51.2515 55.3047
rfingers 7.12502
rthumb -23.7899 26.7575
lclavicle -3.02277e-014 -3.97569e-016
lhumerus 35.0597 -58.2031 -14.0232
lradius 111.696
lwrist 13.2691
lhand -49.7932 -26.0228
lfingers 7.12502
lthumb -22.3906 2.69955
rfemur -38.2649 -18.8201 37.0211
rtibia 62.4721
rfoot -31.4174 -17.9233
rtoes 14.0076
lfemur -48.9298 36.4986 -13.5255
ltibia 69.4892
lfoot -15.7116 0.946846
ltoes -14.5798
1986
root 7.84129 14.1496 -3.99197 -171.891 -8.82752 -176.138
lowerback 9.14428 1.0578 -0.738473
upperback -5.4043 1.29011 0.799044
thorax -11.0005 0.662266 1.0478
lowerneck -18.1681 3.38393 3.68684
upperneck 21.1409 2.73751 2.09103
head 9.74237 1.66618 0.466864
rclavicle 1.23371e-014 1.39149e-014
rhumerus 12.7521 62.5535 -19.5912
rradius 104.279
rwrist 12.5349
rhand -51.16 55.3489
rfingers 7.12502
rthumb -23.7021 26.7903
lclavicle 1.23371e-014 1.39149e-014
lhumerus 35.3886 -57.857 -14.4404
lradius 111.692
lwrist 13.344
lhand -49.7645 -26.0579
lfingers 7.12502
lthumb -22.3631 2.66777
rfemur -38.114 -18.8062 36.9299
rtibia 62.6631
rfoot -31.4986 -17.9576
rtoes 14.215
lfemur -48.9476 36.7322 -13.3175
ltibia 70.3227
lfoot -15.8973 0.823589
ltoes -15.1982
1987
root 7.85357 14.1356 -3.99763 -172.094 -8.7415 -176.233
lowerback 8.94644 1.07923 -0.922302
upperback -5.47795 1.28371 0.75072
thorax -10.9675 0.668527 1.10311
lowerneck -18.0096 3.69594 3.97064
upperneck 21.1157 3.15427 1.87164
head 9.71689 1.8568 0.398278
rclavicle 4.84972e-014 7.95139e-015
rhumerus 12.82 62.4934 -19.4204
rradius 104.288
rwrist 12.5989
rhand -51.0385 55.4095
rfingers 7.12502
rthumb -23.5855 26.8359
lclavicle 4.84972e-014 7.95139e-015
lhumerus 35.7342 -57.4916 -14.8738
lradius 111.677
lwrist 13.367
lhand -49.729 -26.1524
lfingers 7.12502
lthumb -22.3289 2.57739
rfemur -37.9571 -18.8133 36.8053
rtibia 62.8776
rfoot -31.5963 -17.9852
rtoes 14.4312
lfemur -48.9175 36.9203 -13.1195
ltibia 71.2272
lfoot -16.3007 0.810683
ltoes -15.7297
1988
root 7.8651 14.1212 -4.00294 -172.315 -8.66284 -176.344
lowerback 8.77069 1.09545 -1.11667
upperback -5.54912 1.27011 0.709367
thorax -10.9453 0.672486 1.17288
lowerneck -17.8515 4.01241 4.25447
upperneck 21.1123 3.57786 1.64631
head 9.70178 2.04985 0.32871
rclavicle 1.57164e-014 6.75868e-015
rhumerus 12.938 62.4336 -19.2153
rradius 104.294
rwrist 12.6363
rhand -50.8883 55.4544
rfingers 7.12502
rthumb -23.4414 26.8623
lclavicle 1.57164e-014 6.75868e-015
lhumerus 36.0936 -57.1015 -15.3185
lradius 111.657
lwrist 13.3397
lhand -49.6852 -26.2755
lfingers 7.12502
lthumb -22.2869 2.45928
rfemur -37.7852 -18.8452 36.6521
rtibia 63.1032
rfoot -31.6964 -18.011
rtoes 14.5949
lfemur -48.824 37.0569 -12.9254
ltibia 72.1889
lfoot -16.8974 0.912221
ltoes -16.0035
1989
root 7.87547 14.1067 -4.00775 -172.553 -8.59014 -176.46
lowerback 8.61826 1.10921 -1.3039
upperback -5.61865 1.25543 0.677043
thorax -10.9354 0.675879 1.24821
lowerneck -17.7037 4.33268 4.54172
upperneck 21.1401 4.00847 1.40448
head 9.70252 2.24449 0.254359
rclavicle 1.89032e-014 -4.37326e-015
rhumerus 13.0843 62.3702 -18.9873
rradius 104.303
rwrist 12.6417
rhand -50.7092 55.4888
rfingers 7.12502
rthumb -23.2697 26.8749
lclavicle 1.89032e-014 -4.37326e-015
lhumerus 36.4581 -56.6739 -15.7523
lradius 111.639
lwrist 13.2744
lhand -49.6188 -26.397
lfingers 7.12502
lthumb -22.2232 2.34536
rfemur -37.5938 -18.9024 36.4801
rtibia 63.3287
rfoot -31.7919 -18.0348
rtoes 14.7094
lfemur -48.6573 37.1391 -12.7274
ltibia 73.1816
lfoot -17.6347 1.16233
ltoes -16.0564
1990
root 7.8843 14.0929 -4.01185 -172.805 -8.52389 -176.573
lowerback 8.49103 1.12301 -1.47086
upperback -5.69004 1.24463 0.655711
thorax -10.9427 0.6802 1.3229
lowerneck -17.5666 4.65294 4.83865
upperneck 21.1968 4.44205 1.13548
head 9.71902 2.43808 0.170085
rclavicle 1.92976e-014 1.31198e-014
rhumerus 13.2267 62.3044 -18.7605
rradius 104.316
rwrist 12.6207
rhand -50.5003 55.4949
rfingers 7.12502
rthumb -23.0692 26.8558
lclavicle 1.92976e-014 1.31198e-014
lhumerus 36.8305 -56.1932 -16.1699
lradius 111.633
lwrist 13.1991
lhand -49.505 -26.5138
lfingers 7.12502
lthumb -22.1139 2.24163
rfemur -37.3836 -18.9809 36.2984
rtibia 63.5445
rfoot -31.8748 -18.0559
rtoes 14.7667
lfemur -48.4133 37.1598 -12.5243
ltibia 74.1612
lfoot -18.4437 1.57289
ltoes -15.7455
1991
root 7.89117 14.0797 -4.01505 -173.069 -8.46167 -176.673
lowerback 8.39006 1.13589 -1.59907
upperback -5.76279 1.23831 0.641385
thorax -10.9666 0.684227 1.38219
lowerneck -17.4448 4.97374 5.12183
upperneck 21.2749 4.87715 0.876099
head 9.74803 2.6322 0.0923928
rclavicle 3.14949e-015 6.36111e-015
rhumerus 13.3448 62.2338 -18.571
rradius 104.324
rwrist 12.5905
rhand -50.2799 55.4758
rfingers 7.12502
rthumb -22.8577 26.8104
lclavicle 3.14949e-015 6.36111e-015
lhumerus 37.1914 -55.6331 -16.5619
lradius 111.656
lwrist 13.1304
lhand -49.338 -26.6374
lfingers 7.12502
lthumb -21.9536 2.13685
rfemur -37.1555 -19.0742 36.1179
rtibia 63.7439
rfoot -31.9411 -18.075
rtoes 14.7644
lfemur -48.0852 37.1141 -12.31
ltibia 75.0631
lfoot -19.2696 2.15326
ltoes -14.9637
1992
root 7.89576 14.067 -4.01715 -173.336 -8.40414 -176.743
lowerback 8.31318 1.14948 -1.66899
upperback -5.84119 1.24095 0.635797
thorax -11.0105 0.68862 1.41618
lowerneck -17.3367 5.2913 5.39452
upperneck 21.3645 5.30951 0.62176
head 9.78575 2.82465 0.0185287
rclavicle 3.2346e-014 1.19271e-015
rhumerus 13.3988 62.1574 -18.4509
rradius 104.332
rwrist 12.5584
rhand -50.0612 55.4326
rfingers 7.12502
rthumb -22.6479 26.7414
lclavicle 3.2346e-014 1.19271e-015
lhumerus 37.533 -54.9676 -16.9171
lradius 111.722
lwrist 13.0782
lhand -49.1057 -26.8099
lfingers 7.12502
lthumb -21.7305 1.99038
rfemur -36.9199 -19.1757 35.9605
rtibia 63.9213
rfoot -31.9876 -18.0871
rtoes 14.6995
lfemur -47.6743 36.9883 -12.0777
ltibia 75.8026
lfoot -20.0781 2.90455
ltoes -13.6598
1993
root 7.89805 14.0549 -4.01831 -173.601 -8.34492 -176.769
lowerback 8.25379 1.16571 -1.671
upperback -5.92452 1.25635 0.638984
thorax -11.0693 0.694354 1.41897
lowerneck -17.2503 5.60318 5.63891
upperneck 21.4582 5.73373 0.400306
head 9.82927 3.01478 -0.0394912
rclavicle -8.31168e-015 8.74653e-015
rhumerus 13.3553 62.0717 -18.4438
rradius 104.335
rwrist 12.5303
rhand -49.8368 55.3857
rfingers 7.12502
rthumb -22.4324 26.6683
lclavicle -8.31168e-015 8.74653e-015
lhumerus 37.8382 -54.1718 -17.2264
lradius 111.827
lwrist 12.9881
lhand -48.8505 -27.1023
lfingers 7.12502
lthumb -21.4855 1.72611
rfemur -36.6795 -19.2699 35.8435
rtibia 64.0714
rfoot -32.016 -18.0907
rtoes 14.6098
lfemur -47.1708 36.7747 -11.8155
ltibia 76.2785
lfoot -20.8459 3.80681
ltoes -11.8308
1994
root 7.89828 14.0433 -4.01876 -173.859 -8.28172 -176.733
lowerback 8.1998 1.18689 -1.59325
upperback -6.01055 1.28941 0.651549
thorax -11.133 0.702696 1.38384
lowerneck -17.1811 5.90926 5.85834
upperneck 21.5334 6.14935 0.214648
head 9.86928 3.20333 -0.0815546
rclavicle -1.26601e-014 -1.86858e-014
rhumerus 13.1781 61.9789 -18.5819
rradius 104.339
rwrist 12.5408
rhand -49.6882 55.364
rfingers 7.12502
rthumb -22.2898 26.6296
lclavicle -1.26601e-014 -1.86858e-014
lhumerus 38.0864 -53.2041 -17.4705
lradius 111.977
lwrist 12.8339
lhand -48.5938 -27.5779
lfingers 7.12502
lthumb -21.2389 1.27844
rfemur -36.4399 -19.3443 35.7905
rtibia 64.1889
rfoot -32.0203 -18.1026
rtoes 14.4627
lfemur -46.5654 36.4558 -11.5087
ltibia 76.3809
lfoot -21.5705 4.82628
ltoes -9.59167
1995
root 7.89691 14.0326 -4.01896 -174.101 -8.21 -176.635
lowerback 8.14182 1.21473 -1.44463
upperback -6.10035 1.34092 0.671292
thorax -11.1974 0.714333 1.31347
lowerneck -17.1181 6.21029 6.05897
upperneck 21.5668 6.55611 0.0686892
head 9.89494 3.39154 -0.107915
rclavicle -7.98866e-015 1.19271e-014
rhumerus 12.8453 61.8751 -18.8879
rradius 104.345
rwrist 12.5799
rhand -49.5916 55.3399
rfingers 7.12502
rthumb -22.1971 26.5944
lclavicle -7.98866e-015 1.19271e-014
lhumerus 38.2556 -52.0282 -17.6294
lradius 112.173
lwrist 12.5726
lhand -48.3766 -28.2885
lfingers 7.12502
lthumb -21.0302 0.591258
rfemur -36.2065 -19.3897 35.8079
rtibia 64.2691
rfoot -32.0107 -18.1117
rtoes 14.3194
lfemur -45.8446 36.0101 -11.1562
ltibia 76.0103
lfoot -22.2833 5.93345
ltoes -7.12083
